<svg t="1664765310912" class="icon" viewBox="0 0 1024 1024" version="1.1" xmlns="http://www.w3.org/2000/svg" p-id="90423" width="16" height="16"><path d="M252.3648 779.6736a15.36 15.36 0 0 1-15.36-15.36V259.2768a15.36 15.36 0 0 1 30.72 0v505.0368a15.36 15.36 0 0 1-15.36 15.36zM771.6352 782.08a15.36 15.36 0 0 1-15.36-15.36V261.12a15.36 15.36 0 1 1 30.72 0v505.3952a15.36 15.36 0 0 1-15.36 15.5648z" fill="#0e932e" p-id="90424"></path><path d="M771.5328 779.9808h-115.4048a15.36 15.36 0 0 1 0-30.72h115.4048a15.36 15.36 0 0 1 0 30.72zM367.2576 779.6736H252.3648a15.36 15.36 0 1 1 0-30.72h114.8928a15.36 15.36 0 0 1 0 30.72zM771.5328 274.6368H252.3648a15.36 15.36 0 0 1 0-30.72h519.168a15.36 15.36 0 0 1 0 30.72zM771.5328 390.2976H252.3648a15.36 15.36 0 0 1 0-30.72h519.168a15.36 15.36 0 0 1 0 30.72zM512.4608 763.5456a15.36 15.36 0 0 1-15.36-15.36V460.4928a15.36 15.36 0 0 1 30.72 0v287.6928a15.36 15.36 0 0 1-15.36 15.36z" fill="#0e932e" p-id="90425"></path><path d="M610.7136 574.0544a15.36 15.36 0 0 1-10.8544-4.4544L501.76 471.3472a15.36 15.36 0 0 1 21.76-21.7088L621.568 547.84a15.36 15.36 0 0 1-10.8544 26.2144z" fill="#0e932e" p-id="90426"></path><path d="M414.2592 574.0544a15.36 15.36 0 0 1-10.8544-26.2144L501.76 449.6384a15.36 15.36 0 0 1 21.76 21.7088L424.96 569.6a15.36 15.36 0 0 1-10.7008 4.4544z" fill="#0e932e" p-id="90427"></path></svg>